<?xml version="1.0" encoding="UTF-8" standalone="no"?>
<!-- Created with Inkscape (http://www.inkscape.org/) -->

<svg
   width="6.6375356mm"
   height="6.6567402mm"
   viewBox="0 0 6.6375356 6.6567402"
   version="1.1"
   id="svg5"
   inkscape:export-filename="растровый.svg"
   inkscape:export-xdpi="96"
   inkscape:export-ydpi="96"
   xmlns:inkscape="http://www.inkscape.org/namespaces/inkscape"
   xmlns:sodipodi="http://sodipodi.sourceforge.net/DTD/sodipodi-0.dtd"
   xmlns="http://www.w3.org/2000/svg"
   xmlns:svg="http://www.w3.org/2000/svg">
  <sodipodi:namedview
     id="namedview7"
     pagecolor="#ffffff"
     bordercolor="#000000"
     borderopacity="0.25"
     inkscape:showpageshadow="2"
     inkscape:pageopacity="0.0"
     inkscape:pagecheckerboard="0"
     inkscape:deskcolor="#d1d1d1"
     inkscape:document-units="mm"
     showgrid="false" />
  <defs
     id="defs2">
    <clipPath
       clipPathUnits="userSpaceOnUse"
       id="clipEmfPath1-8">
      <path
         d="M 5.4223622,5.4223622 H 30.500787 V 30.500787 H 5.4223622 Z"
         id="path7225" />
    </clipPath>
    <clipPath
       clipPathUnits="userSpaceOnUse"
       id="clipEmfPath1-8-8">
      <path
         d="M 5.4223622,5.4223622 H 30.500787 V 30.500787 H 5.4223622 Z"
         id="path7225-1" />
    </clipPath>
  </defs>
  <g
     inkscape:label="Слой 1"
     inkscape:groupmode="layer"
     id="layer1"
     transform="translate(-2.4278339,-1.521627)">
    <path
       style="opacity:0.42268;fill:#7f7f7f;fill-opacity:1;fill-rule:evenodd;stroke:none;stroke-width:0.27576"
       d="m 2.4739755,4.8278225 c 0,-1.79293 1.4768883,-3.2598731 3.2819724,-3.2598731 1.8168062,0 3.2819714,1.4669431 3.2819714,3.2598731 0,1.8045732 -1.4651652,3.2598742 -3.2819714,3.2598742 -1.8050841,0 -3.2819724,-1.455301 -3.2819724,-3.2598742 z"
       id="path7231" />
    <g
       id="g10215"
       style="opacity:0.42268">
      <path
         style="fill:none;stroke:#686868;stroke-width:1.35559px;stroke-linecap:round;stroke-linejoin:round;stroke-miterlimit:4;stroke-dasharray:none;stroke-opacity:1"
         clip-path="url(#clipEmfPath1-8)"
         d="m 5.7612598,17.622677 c 0,-6.523779 5.3376382,-11.8614172 11.8614172,-11.8614172 6.566142,0 11.861417,5.3376382 11.861417,11.8614172 0,6.566142 -5.295275,11.861417 -11.861417,11.861417 -6.523779,0 -11.8614172,-5.295275 -11.8614172,-11.861417"
         id="path7233"
         transform="matrix(-0.2644256,0.0091345,-0.0091345,-0.2644256,10.568555,9.3595824)" />
      <path
         style="fill:none;stroke:#686868;stroke-width:1.35559px;stroke-linecap:round;stroke-linejoin:round;stroke-miterlimit:4;stroke-dasharray:none;stroke-opacity:1"
         clip-path="url(#clipEmfPath1-8-8)"
         d="m 5.7612598,17.622677 c 0,-6.523779 5.3376382,-11.8614172 11.8614172,-11.8614172 6.566142,0 11.861417,5.3376382 11.861417,11.8614172 0,6.566142 -5.295275,11.861417 -11.861417,11.861417 -6.523779,0 -11.8614172,-5.295275 -11.8614172,-11.861417"
         id="path7233-2"
         transform="matrix(0.26291837,-0.02963559,0.02963559,0.26291837,0.5899356,0.72844773)" />
    </g>
    <text
       xml:space="preserve"
       style="font-size:7.05556px;font-family:KardinalPro;-inkscape-font-specification:KardinalPro;opacity:0.42268;fill:#686868;fill-opacity:1;fill-rule:evenodd;stroke:none;stroke-width:1;stroke-opacity:1"
       x="4.2207589"
       y="7.2924104"
       id="text10271"><tspan
         sodipodi:role="line"
         id="tspan10269"
         style="fill:#686868;fill-opacity:1;stroke:none;stroke-width:1"
         x="4.2207589"
         y="7.2924104">?</tspan></text>
  </g>
</svg>
